<?xml version="1.0" standalone="no"?><!DOCTYPE svg PUBLIC "-//W3C//DTD SVG 1.1//EN" "http://www.w3.org/Graphics/SVG/1.1/DTD/svg11.dtd"><svg height="1024" node-id="1" sillyvg="true" template-height="1024" template-width="1024" version="1.1" viewBox="0 0 1024 1024" width="1024" xmlns="http://www.w3.org/2000/svg" xmlns:xlink="http://www.w3.org/1999/xlink"><defs node-id="60"><linearGradient gradientUnits="objectBoundingBox" id="linearGradient-3" node-id="6" spreadMethod="pad" x1="0.070435904" x2="0.5891686" y1="0.4914278" y2="0.50191015"><stop offset="0" stop-color="#3a58dd" stop-opacity="0"></stop><stop offset="1" stop-color="#4164ff" stop-opacity="0.84686404"></stop></linearGradient><linearGradient gradientUnits="objectBoundingBox" id="linearGradient-4" node-id="9" spreadMethod="pad" x1="0.5395553" x2="0.8237815" y1="0.2548272" y2="0.95809656"><stop offset="0" stop-color="#3a58dd"></stop><stop offset="0.65725714" stop-color="#7192f3"></stop><stop offset="1" stop-color="#92c5ff"></stop></linearGradient><linearGradient gradientUnits="objectBoundingBox" id="linearGradient-5" node-id="13" spreadMethod="pad" x1="0.6610718" x2="0.3652535" y1="0.2921705" y2="0.7450807"><stop offset="0" stop-color="#2362ff"></stop><stop offset="1" stop-color="#cce4ff"></stop></linearGradient><linearGradient gradientUnits="objectBoundingBox" id="linearGradient-6" node-id="16" spreadMethod="pad" x1="0.07662281" x2="0.8970506" y1="0.522516" y2="0.4345515"><stop offset="0" stop-color="#f6faff"></stop><stop offset="1" stop-color="#daebff"></stop></linearGradient><linearGradient gradientUnits="objectBoundingBox" id="linearGradient-7" node-id="19" spreadMethod="pad" x1="0.97571594" x2="0.04511571" y1="0.47726247" y2="0.5137281"><stop offset="0" stop-color="#fbfdff"></stop><stop offset="0.09339488" stop-color="#ffffff"></stop><stop offset="1" stop-color="#daebff"></stop></linearGradient><linearGradient gradientUnits="objectBoundingBox" id="linearGradient-8" node-id="23" spreadMethod="pad" x1="1" x2="0.020348035" y1="0.5191497" y2="0.5510056"><stop offset="0" stop-color="#9bbffe"></stop><stop offset="1" stop-color="#d9eaff"></stop></linearGradient><linearGradient gradientUnits="objectBoundingBox" id="linearGradient-9" node-id="26" spreadMethod="pad" x1="0.0000000000000002462854" x2="1" y1="0.4930532" y2="0.4625429"><stop offset="0" stop-color="#cde2ff"></stop><stop offset="1" stop-color="#9bbffe"></stop></linearGradient><linearGradient gradientUnits="objectBoundingBox" id="linearGradient-10" node-id="29" spreadMethod="pad" x1="0.5" x2="0.58486485" y1="0" y2="1"><stop offset="0" stop-color="#f7e184"></stop><stop offset="1" stop-color="#ff9558"></stop></linearGradient><linearGradient gradientUnits="objectBoundingBox" id="linearGradient-11" node-id="32" spreadMethod="pad" x1="0.52953136" x2="0.35299075" y1="0.053393513" y2="1"><stop offset="0" stop-color="#f7df76"></stop><stop offset="1" stop-color="#eeb765"></stop></linearGradient><linearGradient gradientUnits="objectBoundingBox" id="linearGradient-12" node-id="35" spreadMethod="pad" x1="1.024833" x2="0.054780122" y1="0.22739206" y2="1"><stop offset="0" stop-color="#f6dc75"></stop><stop offset="1" stop-color="#efbd68"></stop></linearGradient><radialGradient cx="0.36190832" cy="0.5927583" fx="0.36190832" fy="0.5927583" gradientUnits="objectBoundingBox" id="radialGradient-13" node-id="38" r="0.63407344" rev="1" spreadMethod="pad"><stop offset="0" stop-color="#bfd7ff"></stop><stop offset="1" stop-color="#7195ff"></stop></radialGradient><mask height="94.0036" id="mask-2" maskUnits="userSpaceOnUse" node-id="45" width="656.35486" x="-46.6586" y="675.0422"><path d="M 956.00 713.00 C 956.00 746.15 909.22 777.95 825.96 801.39 C 742.69 824.83 629.76 838.00 512.00 838.00 C 394.24 838.00 281.31 824.83 198.04 801.39 C 114.78 777.95 68.00 746.15 68.00 713.00 C 68.00 679.85 114.78 648.05 198.04 624.61 C 281.31 601.17 394.24 588.00 512.00 588.00 C 629.76 588.00 742.69 601.17 825.96 624.61 C 909.22 648.05 956.00 679.85 956.00 713.00 Z" fill="#ffffff" fill-rule="evenodd" node-id="135" stroke="none" target-height="250" target-width="888" target-x="68" target-y="588"></path></mask></defs><path d="M 0.00 0.00 L 1024.00 0.00 L 1024.00 1024.00 L 0.00 1024.00 Z" fill="#ffffff" fill-rule="evenodd" hidden="true" node-id="141" stroke="none" target-height="1024" target-width="1024" target-x="0" target-y="0" visibility="hidden"></path><g node-id="153"><g node-id="154"><g node-id="157"><path d="M 956.00 713.00 C 956.00 746.15 909.22 777.95 825.96 801.39 C 742.69 824.83 629.76 838.00 512.00 838.00 C 394.24 838.00 281.31 824.83 198.04 801.39 C 114.78 777.95 68.00 746.15 68.00 713.00 C 68.00 679.85 114.78 648.05 198.04 624.61 C 281.31 601.17 394.24 588.00 512.00 588.00 C 629.76 588.00 742.69 601.17 825.96 624.61 C 909.22 648.05 956.00 679.85 956.00 713.00 Z" fill="#f1f5fd" fill-rule="evenodd" group-id="1,2,5" node-id="146" stroke="none" target-height="250" target-width="888" target-x="68" target-y="588"></path></g><path d="M 58.88 695.31 L 42.65 717.90 L 8.04 761.21 L 457.17 754.28 L 555.00 752.55 L 385.09 682.88 Z" fill="url(#linearGradient-3)" fill-rule="evenodd" group-id="1,2,6" node-id="151" stroke="none" target-height="78.33624" target-width="546.96234" target-x="8.037636" target-y="682.87585"></path></g><path d="M 282.00 441.00 L 560.00 477.71 L 555.00 752.55 L 295.25 721.15 C 287.69 720.24 282.00 713.82 282.00 706.20 L 282.00 441.00 L 282.00 441.00 Z" fill="url(#linearGradient-4)" fill-rule="evenodd" group-id="1" id="矩形" node-id="49" stroke="none" target-height="311.54773" target-width="278" target-x="282" target-y="441"></path><g node-id="155"><path d="M 736.18 404.00 L 555.00 483.12 L 555.00 753.00 L 726.99 680.14 C 732.56 677.78 736.18 672.32 736.18 666.28 L 736.18 404.00 L 736.18 404.00 Z" fill="url(#linearGradient-5)" fill-rule="evenodd" group-id="1,3" id="矩形备份" node-id="50" stroke="none" target-height="349.00003" target-width="181.17542" target-x="555" target-y="403.99997"></path></g><path d="M 555.00 483.12 L 736.18 404.00 L 791.39 485.07 C 795.48 491.08 793.93 499.28 787.91 503.38 C 787.37 503.74 786.81 504.07 786.22 504.36 L 637.00 576.26 C 631.29 579.01 624.44 577.31 620.68 572.21 L 555.00 483.12 L 555.00 483.12 Z" fill="url(#linearGradient-6)" fill-rule="evenodd" group-id="1" id="矩形" node-id="51" stroke="none" target-height="175.00797" target-width="240.48425" target-x="555" target-y="403.99997"></path><g node-id="156"><path d="M 560.00 477.51 L 281.95 440.00 L 226.75 515.82 C 222.47 521.71 223.77 529.95 229.65 534.23 C 231.36 535.47 233.34 536.28 235.42 536.60 L 480.01 573.81 C 484.84 574.54 489.68 572.54 492.59 568.62 L 560.00 477.51 L 560.00 477.51 Z" fill="url(#linearGradient-7)" fill-rule="evenodd" group-id="1,4" id="矩形备份-2" node-id="52" stroke="none" target-height="134.5404" target-width="337.52847" target-x="222.47153" target-y="440"></path></g><path d="M 282.00 440.00 L 477.00 374.00 L 477.00 470.00 Z" fill="url(#linearGradient-8)" fill-rule="evenodd" group-id="1" id="路径-2" node-id="53" stroke="none" target-height="96.00003" target-width="195" target-x="282" target-y="373.99997"></path><path d="M 477.00 374.00 L 736.18 404.00 L 555.33 483.00 L 477.00 469.34 Z" fill="url(#linearGradient-9)" fill-rule="evenodd" group-id="1" id="路径-3" node-id="54" stroke="none" target-height="109.00003" target-width="259.1754" target-x="477" target-y="373.99997"></path><path d="M 622.57 313.15 L 606.59 329.89 L 631.66 374.00 Z" fill="url(#linearGradient-10)" fill-rule="evenodd" group-id="1" id="路径-6" node-id="55" stroke="none" target-height="60.84854" target-width="25.068542" target-x="606.5877" target-y="313.15143"></path><path d="M 645.59 303.46 L 677.50 317.90 L 639.25 374.00 Z" fill="url(#linearGradient-11)" fill-rule="evenodd" group-id="1" id="路径-7" node-id="56" stroke="none" target-height="70.54227" target-width="38.25049" target-x="639.2495" target-y="303.4577"></path><path d="M 684.10 338.00 L 688.54 359.33 L 649.52 379.35 Z" fill="url(#linearGradient-12)" fill-rule="evenodd" group-id="1" id="路径-8" node-id="57" stroke="none" target-height="41.352814" target-width="39.02179" target-x="649.5224" target-y="337.99997"></path><path d="M 190.00 477.50 C 190.00 486.06 183.06 493.00 174.50 493.00 C 165.94 493.00 159.00 486.06 159.00 477.50 C 159.00 468.94 165.94 462.00 174.50 462.00 C 183.06 462.00 190.00 468.94 190.00 477.50 Z" fill="url(#radialGradient-13)" fill-rule="evenodd" group-id="1" id="椭圆形备份" node-id="58" stroke="none" target-height="31" target-width="31" target-x="159" target-y="462"></path></g></svg>