<?xml version="1.0" standalone="no"?><!DOCTYPE svg PUBLIC "-//W3C//DTD SVG 1.1//EN" "http://www.w3.org/Graphics/SVG/1.1/DTD/svg11.dtd"><svg t="1756565529600" class="icon" viewBox="0 0 1024 1024" version="1.1" xmlns="http://www.w3.org/2000/svg" p-id="17091" xmlns:xlink="http://www.w3.org/1999/xlink" width="256" height="256"><path d="M748.353488 430.31814V284.465612H371.323039v115.712H290.498481c-32.942636 0-53.025736 15.042481-53.025737 45.905365v372.259721c0 30.862884 26.751008 55.923101 59.693644 55.9231h553.912558c32.942636 0 59.693643-25.060217 59.693643-55.9231V474.215194c0-30.870822-20.797519-43.897054-44.214573-43.897054h-118.19659z" fill="#FFCB01" p-id="17092"></path><path d="M262.18369 290.212713a27.306667 27.306667 0 0 0 27.338419-27.346356V181.827473h392.834976a31.990078 31.990078 0 0 1 31.950388 31.958325v200.402357a27.306667 27.306667 0 0 0 27.346356 27.338419 27.306667 27.306667 0 0 0 27.346357-27.338419V213.785798c0-47.746977-38.904062-86.651039-86.643101-86.651038H262.18369a27.306667 27.306667 0 0 0-27.354295 27.346356v108.385241a27.370171 27.370171 0 0 0 27.354295 27.346356z" fill="#333333" p-id="17093"></path><path d="M427.857364 398.566202c-1.000186-1.825736-4.651659-8.707969-6.715535-14.907535l-0.762046-2.063876-32.148837-78.093892c-16.249054-39.824868-39.880434-56.312062-72.442047-56.312062H181.105116c-28.497364 0-51.017426 8.255504-66.829891 22.321613-16.765023 14.923411-27.298729 36.864-27.298729 67.075969v467.467907c0 56.28031 45.698977 101.971349 101.979287 101.971348h651.589457c56.28031 0 101.979287-45.691039 101.979287-101.979286V485.860217c0-30.275473-10.811535-51.327008-25.750822-65.289922-15.32031-14.336-35.935256-21.591318-58.026666-21.591318H432.858295a43.976434 43.976434 0 0 1-4.992993-0.412775z m451.163287 87.294015v318.186171a38.499225 38.499225 0 0 1-38.475411 38.483348H188.955783a38.499225 38.499225 0 0 1-38.475411-38.483348V336.594357c0-8.573023 1.270078-15.415566 6.009054-19.646512 5.699473-5.064434 14.343938-6.255132 24.61569-6.255132h134.683783c7.699845 0 9.827225 7.437891 13.66921 16.860279l31.799565 77.252465c8.946109 26.354109 20.305364 40.309085 33.736435 48.350264 10.16062 6.10431 22.226357 9.327132 37.864186 9.327132h425.888744c5.477209 0 10.875039 0.928744 14.661457 4.477023 4.207132 3.921364 5.612155 10.39876 5.612155 18.900341z" p-id="17094"></path></svg>